<svg enable-background="new 0 0 292.4 318.4" viewBox="0 0 292.4 318.4" xmlns="http://www.w3.org/2000/svg" xmlns:xlink="http://www.w3.org/1999/xlink"><linearGradient id="a"><stop offset=".43" stop-color="#5a00ff"/><stop offset=".54" stop-color="#5d00fe"/><stop offset=".64" stop-color="#6700fc"/><stop offset=".72" stop-color="#7800f9"/><stop offset=".8" stop-color="#9000f5"/><stop offset=".88" stop-color="#b000ef"/><stop offset=".95" stop-color="#d500e8"/><stop offset=".99" stop-color="#e900e4"/></linearGradient><linearGradient id="b" gradientUnits="userSpaceOnUse" x1="134.311" x2="158.172" xlink:href="#a" y1="-3.146" y2="133.834"/><linearGradient id="c" gradientUnits="userSpaceOnUse" x1="169.829" x2="2.189" xlink:href="#a" y1="293.787" y2="34.637"/><linearGradient id="d" gradientUnits="userSpaceOnUse" x1="122.352" x2="232.972" y1="77.709" y2="236.369"><stop offset="0" stop-color="#5a00ff"/><stop offset=".11" stop-color="#6401f1"/><stop offset=".86" stop-color="#ad0b93"/></linearGradient><path d="m252.4 40v2.6c0 22.6-18.3 40.8-40.9 40.8-.1 0-.2 0-.3 0l-120-1.1s-30.9 3.9-27.2 32.6l-24-24.5v-50.4z" fill="url(#b)"/><path d="m252.4 236.1c0 23.3-18.9 42.3-42.2 42.3h-.1-170.1v-123.3l39.4 40.1v40.9z" fill="url(#c)"/><path d="m251.4 141.5c0 22.1-17.9 40.1-40.1 40.1 0 0 0 0-.1 0h-81.6l-55.3-56.2-11.3-11.4c-3.6-28.7 27.2-32.6 27.2-32.6l55 58.7z" fill="url(#d)"/></svg>